<?xml version="1.0" encoding="UTF-8"?>
<svg id="b" data-name="Layer 2" xmlns="http://www.w3.org/2000/svg" width="701.04" height="233.712" viewBox="0 0 701.04 233.712">
  <g id="c" data-name="Layer 2">
    <g>
      <path d="M139.662,102.448c24.196,0,45.823,17.638,45.823,48.747,0,29.514-20.208,44.229-44.67,44.229-27.387,0-44.936-19.234-44.936-45.823,0-27.831,18.435-47.152,43.784-47.152ZM118.568,142.333c0,7.711,1.152,17.815,5.052,25.792,4.963,9.927,12.94,13.915,20.208,13.915,10.369,0,19.853-7.445,19.853-25.526,0-9.306-2.394-20.032-6.205-27.654-5.14-9.927-12.496-14.802-19.764-14.802-10.37,0-19.144,8.864-19.144,28.274Z" fill="#fff" stroke-width="0"/>
      <path d="M337.922,183.635c-2.747-2.039-4.165-5.583-4.165-9.04,0-5.849,2.481-21.006,2.481-37.313,0-22.779-10.281-34.833-29.071-34.833-17.283,0-28.185,14.447-30.046,14.447-1.506,0-1.861-4.52-2.748-8.685-.886-3.812-2.481-4.963-5.229-4.963-2.925,0-5.761,1.95-13.117,5.139-5.761,2.483-10.37,3.191-10.37,7.091,0,2.128,1.596,3.28,3.456,4.167,3.103,1.152,6.027,2.924,6.027,7.533v34.654c0,3.196-.626,6.392-2.069,9.245-3.362,6.645-9.402,9.724-16.538,9.724-13.738,0-17.638-11.522-17.638-25.968,0-27.21,3.9-38.112,3.9-46.532,0-2.483-1.152-5.319-5.141-5.319-3.9,0-8.243,1.951-22.069,3.457-4.432.532-6.736,1.95-6.736,4.964,0,3.81,4.077,4.52,6.647,6.912,2.216,2.128,3.457,4.343,3.457,9.307,0,4.608-1.861,20.739-1.861,34.035,0,18.612,8.154,33.769,29.692,33.769,8.272,0,14.302-2.326,18.564-4.882.226,1.948,1.595,3.551,5.449,3.551,5.761,0,9.927-.443,15.156-.443,4.52,0,8.42.443,13.206.443s6.204-1.861,6.204-4.431c0-3.457-2.925-3.989-5.495-6.293-2.659-2.305-3.723-4.786-3.723-10.902v-36.604c0-8.953,10.547-18.435,20.208-18.435,11.256,0,17.992,8.33,17.992,25.792,0,17.371-2.216,33.945-3.899,39.174-.621,1.685-2.039,4.698-2.039,7.534,0,2.216,1.152,4.165,4.609,4.165,4.432,0,6.913-.443,12.32-.443,4.875,0,7.977.443,11.966.443,4.786,0,6.647-1.773,6.647-4.431,0-3.368-2.748-3.899-6.027-6.027Z" fill="#fff" stroke-width="0"/>
      <path d="M412.484,185.584c-.71-1.24-1.241-2.392-2.128-2.392-.797,0-1.861,1.418-3.899,3.279-3.989,3.723-11.345,8.953-23.31,8.953-17.992,0-34.92-14.181-34.92-43.961,0-32.263,17.283-49.014,37.757-49.014,16.397,0,22.513,11.079,24.019,11.079.886,0,1.418-1.152,1.418-6.647v-18.435c0-4.254-2.925-6.648-6.027-7.8-1.861-.974-3.812-2.039-3.812-4.165,0-3.723,4.52-4.52,10.282-6.825,8.331-3.279,12.763-6.293,16.22-6.293,3.19,0,5.052,1.684,5.052,5.407,0,7.445-.797,9.75-.797,30.49v71.969c0,3.899,1.506,7.622,5.406,7.622,2.216,0,3.014-.71,4.343-.71.709,0,1.684.976,1.684,3.014,0,7.622-7.179,13.826-15.954,13.826-7.267,0-12.054-2.481-15.333-9.395ZM411.686,148.359c0-25.437-10.724-33.502-20.385-33.502-11.167,0-20.563,10.014-20.563,32.438,0,20.829,7.888,32.882,21.183,32.882,11.168,0,19.765-8.509,19.765-31.819Z" fill="#fff" stroke-width="0"/>
      <path d="M484.048,137.9v34.566c0,6.116,1.596,8.598,4.254,10.902,2.482,2.305,5.407,2.836,5.407,6.293,0,2.57-1.418,4.431-6.204,4.431s-8.774-.443-13.649-.443c-5.495,0-7.8.443-15.156.443-4.254,0-5.495-1.95-5.495-4.165,0-3.368,3.102-4.875,4.786-6.293,4.343-3.899,5.052-7.711,5.052-12.231v-42.365c0-4.875-2.57-7.534-5.761-8.864-1.861-1.063-3.899-2.305-3.899-4.52,0-4.167,4.608-4.52,10.369-6.825,8.332-3.368,13.118-6.382,16.131-6.382,3.368,0,5.052,1.684,5.052,5.496,0,4.609-.886,12.586-.886,29.957ZM476.514,65.843c6.293,0,11.256,4.078,11.256,10.547,0,8.864-9.306,16.043-18.701,16.043-6.647,0-9.927-3.901-9.927-9.129,0-8.598,8.509-17.461,17.371-17.461Z" fill="#fff" stroke-width="0"/>
      <path d="M592.207,174.594c0,3.457,1.418,7.001,4.165,9.04,3.279,2.128,6.027,2.659,6.027,6.027,0,2.658-1.861,4.431-6.647,4.431-3.989,0-7.091-.443-11.966-.443-5.407,0-7.888.443-12.32.443-3.457,0-4.609-1.95-4.609-4.165,0-2.836,1.418-5.849,2.039-7.534,1.684-5.228,3.9-21.803,3.9-39.174,0-17.461-6.736-25.792-17.993-25.792-9.661,0-20.208,9.483-20.208,18.435v36.604c0,6.116,1.063,8.598,3.723,10.902,2.57,2.305,5.495,2.836,5.495,6.293,0,2.57-1.418,4.431-6.204,4.431s-8.686-.443-13.206-.443c-5.229,0-9.395.443-15.156.443-4.254,0-5.496-1.95-5.496-4.165,0-3.368,3.102-4.875,4.787-6.293,4.343-3.899,5.052-7.711,5.052-12.231v-44.227c0-4.609-2.925-6.381-6.027-7.533-1.861-.886-3.457-2.039-3.457-4.167,0-3.899,4.608-4.608,10.37-7.091,7.356-3.19,10.193-5.139,13.117-5.139,2.748,0,4.343,1.151,5.229,4.963.886,4.165,1.241,8.685,2.748,8.685,1.861,0,12.763-14.447,30.046-14.447,18.79,0,29.071,12.055,29.071,34.833,0,16.308-2.481,31.464-2.481,37.313Z" fill="#fff" stroke-width="0"/>
      <path d="M678.882,106.171c14.269,0,15.511-3.634,19.233-3.634,1.861,0,2.925,1.861,2.925,4.786,0,2.747-.798,6.204-1.95,8.332-.886,1.773-2.659,4.697-5.939,4.697-5.052,0-9.394-1.506-10.99-1.506-.709,0-.886.353-.886.885,0,1.418,4.875,5.851,4.875,14.27,0,19.411-16.131,30.756-36.693,30.756-3.457,0-7.445-.532-10.37-.532-5.052,0-10.813,2.836-10.813,8.33,0,4.786,4.432,7.8,11.876,7.8,6.471,0,18.79-2.394,29.249-2.394,16.131,0,27.741,6.027,27.741,22.424,0,20.474-25.614,33.326-54.42,33.326-24.728,0-36.339-8.243-36.339-21.272,0-8.243,6.471-14.448,13.206-17.195.975-.532,1.33-.974,1.33-1.418,0-.355-.355-.797-1.152-1.152-2.748-1.506-8.864-6.204-8.864-14.802,0-6.736,4.963-13.737,13.649-17.371.709-.355,1.33-.886,1.33-1.33s-.355-.974-1.064-1.595c-5.761-4.431-11.522-12.142-11.522-23.399,0-20.828,16.663-31.641,36.073-31.641,11.788,0,22.601,3.634,29.514,3.634ZM657.699,196.842c-7.356,0-17.549,1.063-21.626,2.216-7.622,1.861-12.675,6.293-12.675,11.611,0,7.888,9.129,10.99,20.74,10.99,16.397,0,28.185-6.381,28.185-14.624,0-6.825-5.672-10.193-14.624-10.193ZM650.52,152.436c8.864,0,15.954-5.583,15.954-17.283,0-8.066-3.9-21.272-16.841-21.272-9.04,0-15.599,7.356-15.599,18.435,0,13.826,7.889,20.119,16.486,20.119Z" fill="#fff" stroke-width="0"/>
      <path d="M178.032,86.045c-.268-4.377-.493-8.053-.781-12.761-.174-2.838-1.674-5.46-4.097-6.947-28.897-17.738-54.836-4.29-81.11,5.621-.847.32-1.675-.52-1.351-1.366l6.684-17.416c.665-1.732,2.03-3.107,3.763-3.77,20.883-7.994,41.931-14.24,64.803-1.272,2.502,1.419,5.581-.443,5.405-3.314-.268-4.376-.493-8.051-.781-12.757-.179-2.923-1.803-5.555-4.304-7.077-19.61-11.942-37.859-9.54-55.779-3.672-.843.276-1.63-.541-1.312-1.369l5.6-14.591c1.267-3.3-2.121-6.466-5.324-4.971-20.467,9.552-49.735,22.549-77.915,12.393-2.401-.865-4.215-2.892-4.908-5.349-.058-.207-.108-.383-.15-.528-.979-3.435-3.2-4.989-6.247-4.989-3.303,0-4.965,1.008-12.06,4.035C3.274,8.069-.834,8.805.146,12.24c.56,1.962,2.533,2.944,4.568,3.845,3.267,1.063,6.512,2.944,7.585,6.706l39.173,153.539c1.189,4.17,1.514,7.688-1.608,11.287-1.236,1.309-3.803,2.699-2.916,5.807.583,2.045,2.281,3.845,6.345,3.845,5.419,0,11.775-.41,16.855-.41,4.148,0,9.43.41,13.155.41,4.572,0,5.437-1.718,4.76-4.09-.909-3.19-3.844-3.681-6.82-5.807-3.147-2.126-5.323-4.417-6.933-10.061l-19.265-67.56c-.904-3.17-2.239-7.925-3.846-13.683-1.979-7.091,3.078-14.243,10.428-14.654,7.722-.432,15.31-2.283,22.839-4.748.843-.276,1.63.541,1.312,1.369l-6.219,16.203c-1.183,3.082,1.735,6.184,4.873,5.157,28.821-9.429,56.789-27.843,88.194-10.036,2.502,1.419,5.581-.443,5.405-3.314ZM38.282,49.503c-.853-3.084-1.692-6.119-2.506-9.062-.32-1.158.734-2.226,1.897-1.921,22.705,5.953,43.859-4.437,65.234-12.499.847-.32,1.675.521,1.351,1.366l-6.684,17.416c-.665,1.732-2.03,3.107-3.763,3.77-15.864,6.069-31.825,11.114-48.607,7.506-3.347-.72-6.009-3.276-6.922-6.575Z" fill="#fff" stroke-width="0"/>
    </g>
  </g>
</svg>