<?xml version="1.0" encoding="UTF-8"?>
<svg id="b" data-name="Layer 2" xmlns="http://www.w3.org/2000/svg" width="409.852" height="454.12" viewBox="0 0 409.852 454.12">
  <g id="c" data-name="Layer 2">
    <path d="M409.836,198.078c-.617-10.077-1.135-18.538-1.798-29.377-.4-6.532-3.854-12.568-9.431-15.992-66.523-40.834-126.234-9.876-186.717,12.94-1.951.736-3.856-1.198-3.109-3.145l15.388-40.092c1.53-3.987,4.674-7.152,8.663-8.679,48.073-18.403,96.528-32.782,149.179-2.929,5.76,3.266,12.848-1.019,12.443-7.628-.616-10.074-1.134-18.534-1.797-29.368-.412-6.728-4.151-12.787-9.909-16.293-45.143-27.49-87.153-21.961-128.406-8.454-1.94.635-3.751-1.246-3.02-3.152l12.892-33.589c2.916-7.597-4.882-14.885-12.256-11.444-47.116,21.989-114.492,51.909-179.363,28.529-5.528-1.992-9.703-6.657-11.298-12.313-.134-.476-.249-.883-.345-1.216-2.255-7.908-7.366-11.485-14.382-11.485-7.604,0-11.429,2.32-27.762,9.288C7.537,18.574-1.92,20.27.335,28.177c1.288,4.517,5.83,6.778,10.516,8.851,7.52,2.448,14.991,6.778,17.461,15.438l90.177,353.452c2.737,9.6,3.486,17.698-3.701,25.983-2.844,3.013-8.754,6.213-6.713,13.368,1.342,4.708,5.251,8.851,14.607,8.851,12.474,0,27.106-.943,38.801-.943,9.549,0,21.707.943,30.284.943,10.525,0,12.516-3.955,10.959-9.416-2.094-7.343-8.85-8.473-15.701-13.368-7.245-4.895-12.255-10.168-15.96-23.161l-44.348-155.526c-2.081-7.299-5.154-18.244-8.853-31.498-4.556-16.324,7.085-32.787,24.007-33.735,17.777-.996,35.243-5.256,52.576-10.929,1.94-.635,3.752,1.246,3.02,3.152l-14.316,37.299c-2.723,7.095,3.995,14.235,11.217,11.872,66.347-21.706,130.731-64.096,203.026-23.104,5.76,3.266,12.848-1.019,12.443-7.628ZM88.127,113.957c-1.964-7.099-3.896-14.086-5.77-20.861-.737-2.667,1.691-5.124,4.367-4.422,52.268,13.703,100.966-10.214,150.172-28.774,1.951-.736,3.856,1.198,3.109,3.145l-15.388,40.093c-1.53,3.987-4.673,7.152-8.662,8.678-36.519,13.972-73.262,25.584-111.895,17.278-7.705-1.657-13.833-7.541-15.934-15.137Z" fill="#fff" stroke-width="0"/>
  </g>
</svg>