<svg width="1440" height="1024" viewBox="0 0 1440 1024" fill="none" xmlns="http://www.w3.org/2000/svg">
  <path d="M0 1024V0H1440V1024H0Z" fill="url(#paint0_radial_1_2)"/>
  <g opacity="0.5">
    <path d="M-114 276.123C-114 276.123 125.131 196.123 306.641 276.123C488.151 356.123 643.749 356.123 819.825 276.123C995.901 196.123 1169.13 196.123 1345.21 276.123C1521.29 356.123 1670.73 356.123 1670.73 356.123" stroke="white" stroke-opacity="0.2" stroke-width="2"/>
    <path d="M-114 476.123C-114 476.123 125.131 396.123 306.641 476.123C488.151 556.123 643.749 556.123 819.825 476.123C995.901 396.123 1169.13 396.123 1345.21 476.123C1521.29 556.123 1670.73 556.123 1670.73 556.123" stroke="white" stroke-opacity="0.2" stroke-width="2"/>
    <path d="M-114 676.123C-114 676.123 125.131 596.123 306.641 676.123C488.151 756.123 643.749 756.123 819.825 676.123C995.901 596.123 1169.13 596.123 1345.21 676.123C1521.29 756.123 1670.73 756.123 1670.73 756.123" stroke="white" stroke-opacity="0.2" stroke-width="2"/>
  </g>
  <defs>
    <radialGradient id="paint0_radial_1_2" cx="0" cy="0" r="1" gradientUnits="userSpaceOnUse" gradientTransform="translate(720 512) rotate(90) scale(512 720)">
      <stop stop-color="white" stop-opacity="0.02"/>
      <stop offset="1" stop-color="white" stop-opacity="0"/>
    </radialGradient>
  </defs>
</svg>