<?xml version="1.0" encoding="UTF-8"?>
<svg xmlns="http://www.w3.org/2000/svg" id="Layer_1" data-name="Layer 1" viewBox="0 0 694.28 398.07">
  <defs>
    <style>
      .cls-1 {
        stroke-width: 0px;
      }
    </style>
  </defs>
  <path class="cls-1" d="M694.65,69.83c-51.71,27-108.39,37.97-166.47,35.09-85.59-4.24-167.33-33.39-250.13-52.8-42.11-9.87-85.05-17.55-128.42-17.87-52.38-.39-103.14,11.3-149.63,35.57v-34.25C46.49,11.31,97.25-.38,149.63,0c43.37.32,86.31,8,128.42,17.87,82.8,19.41,164.54,48.56,250.13,52.8,58.09,2.88,114.76-8.09,166.47-35.09,0,11.42,0,22.83,0,34.25Z"></path>
  <path class="cls-1" d="M694.65,138.32c-51.71,27-108.39,37.97-166.47,35.09-85.59-4.24-167.33-33.39-250.13-52.8-42.11-9.87-85.05-17.55-128.42-17.87-52.38-.39-103.14,11.3-149.63,35.57v-34.25c46.49-24.28,97.25-35.96,149.63-35.57,43.37.32,86.31,8,128.42,17.87,82.8,19.41,164.54,48.56,250.13,52.8,58.09,2.88,114.76-8.09,166.47-35.09,0,11.42,0,22.83,0,34.25Z"></path>
  <path class="cls-1" d="M694.65,206.81c-51.71,27-108.39,37.97-166.47,35.09-85.59-4.24-167.33-33.39-250.13-52.8-42.11-9.87-85.05-17.55-128.42-17.87-52.38-.39-103.14,11.3-149.63,35.57v-34.25c46.49-24.28,97.25-35.96,149.63-35.57,43.37.32,86.31,8,128.42,17.87,82.8,19.41,164.54,48.56,250.13,52.8,58.09,2.88,114.76-8.09,166.47-35.09v34.25Z"></path>
  <path class="cls-1" d="M694.65,275.3c-51.71,27-108.39,37.97-166.47,35.09-85.59-4.24-167.33-33.39-250.13-52.8-42.11-9.87-85.05-17.55-128.42-17.87-52.38-.39-103.14,11.3-149.63,35.57v-34.25c46.49-24.28,97.25-35.96,149.63-35.57,43.37.32,86.31,8,128.42,17.87,82.8,19.41,164.54,48.56,250.13,52.8,58.09,2.88,114.76-8.09,166.47-35.09,0,11.42,0,22.83,0,34.25Z"></path>
  <path class="cls-1" d="M694.65,343.79c-51.71,27-108.39,37.97-166.47,35.09-85.59-4.24-167.33-33.39-250.13-52.8-42.11-9.87-85.05-17.55-128.42-17.87-52.38-.39-103.14,11.3-149.63,35.57v-34.25c46.49-24.28,97.25-35.96,149.63-35.57,43.37.32,86.31,8,128.42,17.87,82.8,19.41,164.54,48.56,250.13,52.8,58.09,2.88,114.76-8.09,166.47-35.09,0,11.42,0,22.83,0,34.25Z"></path>
</svg>
